# xmcd CD database file
#
# Track frame offsets:
#	150
#	26902
#	85991
#	109414
#	123749
#	154783
#
# Disc length: 2395 seconds
#
# Revision: 0
# Processed by: cddbd v1.5.1PL0 Copyright (c) Steve Scherf et al.
# Submitted via: CDex 1.51
#
DISCID=4f095906
DTITLE=Christoph Spendel Group - Raspail Hotel
DYEAR=1981
DGENRE=Jazz
TTITLE0=Raspail Hotel
TTITLE1=Sunday Morning
TTITLE2=Saturday sun
TTITLE3=Harmony shuffle
TTITLE4=Cat Columbus
TTITLE5=Christina
EXTD=YEAR: 1981
EXTT0=
EXTT1=
EXTT2=
EXTT3=
EXTT4=
EXTT5=
PLAYORDER=
